HIERARCHY
ROOT Hips
{
  OFFSET -32.5998 29.0326 120.673
  CHANNELS 6 Xposition Yposition Zposition Zrotation Xrotation Yrotation
  JOINT LeftUpLeg
  {
    OFFSET 8.64259 1.95398 -2.38835
    CHANNELS 3 Zrotation Xrotation Yrotation
    JOINT LeftLeg
    {
      OFFSET 43.7702 0 0
      CHANNELS 3 Zrotation Xrotation Yrotation
      JOINT LeftFoot
      {
        OFFSET 40.6238 0 0
        CHANNELS 3 Zrotation Xrotation Yrotation
        JOINT LeftToeBase
        {
          OFFSET 12.7242 0 0
          CHANNELS 3 Zrotation Xrotation Yrotation
          End Site
          {
            OFFSET 0 0 0
          }
        }
      }
    }
  }
  JOINT RightUpLeg
  {
    OFFSET -8.2249 1.95398 -2.59336
    CHANNELS 3 Zrotation Xrotation Yrotation
    JOINT RightLeg
    {
      OFFSET 43.5653 0 0
      CHANNELS 3 Zrotation Xrotation Yrotation
      JOINT RightFoot
      {
        OFFSET 40.6238 0 0
        CHANNELS 3 Zrotation Xrotation Yrotation
        JOINT RightToeBase
        {
          OFFSET 12.7242 0 0
          CHANNELS 3 Zrotation Xrotation Yrotation
          End Site
          {
            OFFSET 0 0 0
          }
        }
      }
    }
  }
  JOINT Spine
  {
    OFFSET 0.165834 0.87714 6.61349
    CHANNELS 3 Zrotation Xrotation Yrotation
    JOINT Spine1
    {
      OFFSET 7.38963 1.71661e-005 0
      CHANNELS 3 Zrotation Xrotation Yrotation
      JOINT Spine2
      {
        OFFSET 11.9445 1.14441e-005 0
        CHANNELS 3 Zrotation Xrotation Yrotation
        JOINT Spine3
        {
          OFFSET 14.7254 4.19617e-005 0
          CHANNELS 3 Zrotation Xrotation Yrotation
          JOINT Spine4
          {
            OFFSET 10.9679 0 0
            CHANNELS 3 Zrotation Xrotation Yrotation
            JOINT RightShoulder
            {
              OFFSET 2.46616 -1.6653 3.69651
              CHANNELS 3 Zrotation Xrotation Yrotation
              JOINT RightArm
              {
                OFFSET 13.0012 0 0
                CHANNELS 3 Zrotation Xrotation Yrotation
                JOINT RightForeArm
                {
                  OFFSET 28.7848 1.62311e-005 0
                  CHANNELS 3 Zrotation Xrotation Yrotation
                  JOINT RightHand
                  {
                    OFFSET 26.5688 1.62095e-005 0
                    CHANNELS 3 Zrotation Xrotation Yrotation
                    End Site
                    {
                      OFFSET 0 0 0
                    }
                  }
                }
              }
            }
            JOINT LeftShoulder
            {
              OFFSET 2.38034 -1.29275 -3.7523
              CHANNELS 3 Zrotation Xrotation Yrotation
              JOINT LeftArm
              {
                OFFSET 16.3182 6.07031e-005 0
                CHANNELS 3 Zrotation Xrotation Yrotation
                JOINT LeftForeArm
                {
                  OFFSET 27.0901 0 0
                  CHANNELS 3 Zrotation Xrotation Yrotation
                  JOINT LeftHand
                  {
                    OFFSET 24.5451 1.51738e-005 0
                    CHANNELS 3 Zrotation Xrotation Yrotation
                    End Site
                    {
                      OFFSET 0 0 0
                    }
                  }
                }
              }
            }
            JOINT Neck
            {
              OFFSET 5.0226 -0.0266342 0
              CHANNELS 3 Zrotation Xrotation Yrotation
              JOINT Head
              {
                OFFSET 6.69364 2.86102e-005 0
                CHANNELS 3 Zrotation Xrotation Yrotation
                End Site
                {
                  OFFSET 0 0 0
                }
              }
            }
          }
        }
      }
    }
  }
}
MOTION
Frames:	13
Frame Time:	0.0416667
0.893302 110.663 -3.56436 87.4077 49.128 91.5216 -172.147 -0.566238 97.1282 -65.1048 25.1624 3.70014 47.7201 -8.92135 -2.61442 10.6064 -8.82372 1.42117 167.525 2.28062 90.2705 -91.1398 -14.6258 -2.48263 59.8529 2.16536 -0.284149 18.93 2.25496 6.57623 0.195969 7.20835 -90.5221 12.4566 0.140944 -1.05838 0.785233 0.0942231 -1.06356 -21.747 0.45249 -0.967107 -1.7343 0.452498 -0.967111 103.771 9.41753 -73.3902 -8.52715 37.4845 -43.7374 -14.9026 -1.5521 -9.65468 -12.1146 0.434322 -9.69867 -79.1886 -3.47509 91.8586 21.3096 -39.6224 -55.9543 15.3413 -9.00702 -0.0785187 2.75452 -0.172565 -6.52818 -29.945 -0.440181 -6.48129 -1.99455 -1.19753 3.48275 
7.63844 113.291 -9.53565 85.8347 48.6602 92.2043 -169.229 18.7783 93.3403 -88.4927 13.4512 1.97325 59.9493 -2.21874 1.34527 7.82207 -10.7771 2.19744 168.79 28.5851 87.395 -112.54 -15.3756 -3.6853 65.2433 -2.50914 -3.09851 21.0725 2.23857 3.97363 -0.0385192 8.4187 -90.6458 10.033 -0.370479 -1.25557 -1.63851 -0.425372 -1.23805 -24.1688 0.0239526 -1.30886 -4.15616 0.0239809 -1.30885 103.055 -0.360917 -78.888 -13.3142 25.3641 -15.4919 -14.3273 -1.28939 -10.803 -12.4905 0.305332 -8.28267 -79.0281 -4.98517 92.9391 34.1188 -18.5458 -26.674 11.1761 -11.0408 -2.23289 1.68506 -0.162859 -6.55233 -31.4319 0.0905939 -5.53811 1.00708 -0.483188 4.79158 
13.3955 112.449 -13.2221 82.8137 49.6584 93.3989 -163.866 43.1313 82.1781 -96.3161 12.1127 1.31096 69.857 4.62163 3.4262 5.23906 -11.0904 0.728339 169.408 51.4809 91.7949 -104.138 -12.6113 -3.14518 71.6354 -7.34746 -5.59311 22.3892 1.69248 3.94665 -0.197985 9.81709 -90.5888 7.23502 -0.649092 -1.13116 -4.43623 -0.69826 -1.1015 -26.9678 -0.279183 -1.27391 -6.95513 -0.279166 -1.27393 99.8574 -4.51466 -90.2746 0.174129 8.39817 2.8654 -11.7048 -0.825861 -8.72889 -12.2722 0.547303 -10.7187 -80.5355 -8.07583 88.8459 31.5222 15.3629 -11.9075 4.30241 -17.6614 -2.29375 0.92549 -0.14165 -6.14546 -25.6644 -0.206561 -6.66452 2.77657 -0.493253 5.32491 
21.1881 107.063 -18.717 79.1085 50.5548 96.7177 -159.544 58.7032 73.8301 -82.321 13.1352 -1.92012 76.6722 8.92239 1.08751 9.01106 -12.7468 6.07398 171.431 59.3629 91.4487 -72.6305 -10.1272 0.145841 73.371 -7.71982 -3.50424 20.6575 3.00164 2.19996 -0.0301563 11.0327 -90.8367 4.80246 -0.403271 -1.63518 -6.86943 -0.474836 -1.61586 -29.3963 0.106734 -1.68076 -9.38362 0.10672 -1.68079 97.5119 -12.1413 -95.5085 14.7218 -2.36241 6.71463 -9.38723 -4.80654 -11.2406 -12.7754 0.449629 -9.5647 -83.3929 -16.2265 82.9753 18.4935 24.4323 -5.207 3.56568 -18.8601 -0.468435 3.71734 -0.22261 -6.83027 -13.0604 -1.52111 -7.30654 1.06423 -1.16408 6.26803 
32.7135 97.9353 -27.9823 75.269 47.6535 100.368 -163.103 65.5212 77.8204 -57.8652 13.3007 -6.18339 76.1618 8.11365 -2.13086 16.4788 -11.5924 10.8305 175.958 56.1774 90.4914 -41.5547 -14.0004 2.44198 68.1069 -4.4881 -1.177 23.114 2.20212 1.29618 0.196134 11.6685 -90.9226 3.5328 0.0234603 -1.80494 -8.1394 -0.055999 -1.80423 -30.6652 0.564748 -1.7145 -10.6525 0.564737 -1.7145 94.3899 -17.0035 -102.289 26.8476 -5.36229 6.67935 -8.51534 -1.39092 -14.4187 -13.6501 0.474438 -9.51348 -84.6606 -24.4765 82.472 -0.154861 19.3251 -2.36872 5.28051 -15.4201 -0.393941 2.96201 -0.166586 -6.87508 -3.67533 -1.1444 -2.74756 -1.533 -0.762598 3.08855 
44.8717 83.3627 -38.2015 82.0608 45.168 95.5168 -172.647 63.9865 87.9157 -47.99 15.4878 -4.60834 74.0995 7.20333 -3.31509 18.3763 -8.21653 7.18553 179.893 61.0406 92.5995 -62.4458 -11.6668 -0.779553 67.7883 -3.37008 -1.79241 20.865 1.81071 5.51116 0.303048 11.6263 -90.552 3.6234 0.384726 -1.08067 -8.04793 0.336801 -1.09656 -30.581 0.691722 -0.915106 -10.5683 0.691733 -0.915099 90.2649 -27.5076 -107.184 29.7589 -6.95361 2.69378 -8.1322 -3.28753 -11.0466 -10.5007 0.225511 -7.89663 -86.4828 -36.2051 81.3984 -6.32561 27.3593 -5.30563 0.076492 -24.2689 0.0197528 4.5403 0.163967 -3.16959 -6.10191 0.186222 -1.04166 -1.86021 0.32201 2.56362 
52.8403 72.8797 -45.9389 90.8455 40.8812 92.4453 -179.404 72.404 94.9052 -72.0738 19.316 0.0101364 61.8361 -0.583145 2.09986 6.74767 -19.4136 13.3658 167.439 67.1084 107.291 -93.2227 -16.9891 -1.6795 67.8495 -4.84028 -5.39193 29.9053 -2.01227 6.58594 0.522436 12.0274 -90.4348 2.82119 0.872613 -0.839242 -8.84975 0.834866 -0.876836 -31.3862 1.0845 -0.538177 -11.3736 1.0845 -0.538175 86.9197 -28.5714 -113.486 21.1136 -8.57887 -17.475 -6.53966 -2.47808 -5.03613 -14.0379 0.140242 -6.51592 -89.8094 -42.8732 77.389 -3.07508 21.6864 -24.6819 2.51218 -15.0737 0.00388282 -0.540941 0.0554542 -6.87017 -0.162957 1.6386 0.0380754 -0.481206 1.68898 2.9426 
59.9233 67.5967 -52.1513 96.5114 44.2031 84.2509 -164.73 72.6785 77.957 -90.9623 19.8872 0.873017 72.1389 6.93236 4.83813 11.2292 -13.7302 9.44743 167.578 65.4041 102.525 -110.551 -15.4714 -3.48949 73.076 -9.17113 -7.57911 39.0829 -5.39497 6.32578 0.373736 12.5739 -90.0221 1.72543 0.737831 -0.026792 -9.94535 0.73594 -0.0592565 -32.4819 0.711767 0.196205 -12.4693 0.711779 0.196198 89.5118 -22.0783 -111.31 11.3299 2.50199 -44.6366 -10.4727 -7.00616 -12.4305 -14.4607 0.154716 -6.59748 -91.6671 -38.5344 73.0782 5.81848 4.69369 -60.488 6.03197 -10.5261 -0.274632 3.5163 -0.243949 -9.00451 4.51606 0.725364 -0.186179 0.010426 0.750617 0.362263 
65.6816 67.5101 -56.3878 94.1578 46.5016 84.3242 -154.568 71.8528 69.703 -97.6973 21.9673 0.759824 76.2816 10.1051 5.20347 11.0203 -13.7782 9.29756 171.411 62.9102 99.8142 -113.912 -11.2372 -3.82563 73.496 -9.09527 -6.27431 49.1949 -9.07748 5.67364 0.474212 12.2426 -89.9168 2.38715 0.979311 0.181077 -9.28344 0.986342 0.137787 -31.8209 0.879619 0.467053 -11.8083 0.879624 0.467049 93.6576 -11.562 -106.583 6.45864 19.5925 -64.3158 -12.1121 -3.67006 -13.3174 -14.9817 0.319551 -7.84462 -89.7072 -27.6757 73.0587 -0.842045 -11.1276 -84.1328 11.6846 -3.72839 -3.73535 5.54492 -0.41051 -8.87765 6.04291 -1.28859 1.26191 3.64681 -1.5148 -0.186413 
71.9235 72.0692 -60.6113 90.889 50.4608 84.5266 -157.189 65.8655 72.0672 -95.137 25.3921 0.0800068 77.3039 11.6747 6.48353 10.8548 -12.8632 7.77602 173.759 54.8779 96.64 -108.457 -7.35549 -3.728 74.3415 -9.31637 -6.28631 54.2504 -10.9514 4.17153 0.442461 11.6696 -89.7315 3.5323 0.991419 0.525654 -8.13835 1.0136 0.481505 -30.6748 0.787591 0.799317 -10.6621 0.787619 0.799329 98.0723 -1.75654 -97.508 9.95138 32.3113 -75.3546 -12.9971 0.0671992 -13.5015 -17.0631 0.549125 -9.06965 -85.8422 -16.0343 77.1216 -5.86263 -20.404 -101.622 12.8652 -6.77764 -11.9925 6.09997 -0.376886 -8.19463 3.05338 -2.94788 -2.04341 6.35607 -2.59195 -0.301242 
78.6062 79.2196 -65.8103 88.3942 52.6605 84.7454 -162.86 55.7666 78.4581 -86.5073 28.0551 -1.3566 77.162 11.8006 5.6765 13.8505 -13.1916 11.0151 175.399 47.8263 93.3542 -99.5182 -7.59061 -3.50693 65.4242 -2.24996 -3.99628 52.8761 -10.3953 9.45711 0.345593 10.9664 -89.6652 4.93815 0.828339 0.643741 -6.73267 0.855875 0.606644 -29.2678 0.596568 0.862916 -9.25514 0.596579 0.862921 99.6854 4.46922 -93.9689 10.9782 37.0912 -74.9471 -14.4922 -4.12979 -17.2564 -16.0085 0.430018 -8.47532 -83.2466 -9.44236 81.4988 -18.4412 -23.816 -108.037 17.4038 1.93783 -29.8258 2.74423 -0.306631 -9.20413 -3.32914 -3.08409 -2.37867 8.26116 -2.75436 0.315946 
85.6384 86.5452 -71.1951 86.409 52.1701 87.0572 -168.366 43.8089 85.8805 -73.9963 27.095 -1.97276 76.5558 10.8941 3.39257 23.8785 -7.72086 11.7677 177.962 44.8258 92.4303 -91.9869 -15.3857 -3.70606 52.0617 6.85757 0.635711 30.492 -2.7345 8.87389 0.432823 10.3485 -89.6487 6.17357 1.01301 0.658096 -5.49712 1.04097 0.612871 -28.033 0.768376 0.932115 -8.02032 0.768384 0.932114 99.8426 4.17345 -93.4381 6.53506 36.6554 -70.7154 -15.2615 -6.75901 -20.5682 -12.9659 0.407016 -9.09283 -84.562 -14.0863 79.6418 -21.6822 -25.6518 -107.125 22.2663 6.1286 -48.5867 2.32474 -0.259142 -8.47096 -6.31388 -2.78339 -4.04326 8.27841 -2.33992 0.797106 
92.2573 92.4132 -76.8952 85.8289 51.0168 88.0222 -171.31 31.7141 89.1556 -61.7613 26.2705 -1.91562 75.415 10.3407 3.97625 25.4435 -6.65634 11.4237 -179.723 42.7287 89.8221 -81.3855 -25.7865 -4.46506 54.8602 4.75093 2.28572 30.6258 -1.34997 2.30146 0.311738 9.93183 -89.5658 7.00644 0.808932 0.820984 -4.66448 0.844277 0.784574 -27.1986 0.524803 1.02613 -7.1859 0.524815 1.02613 98.0255 -3.3741 -96.8153 -2.41967 35.0774 -62.3996 -16.342 -9.70107 -25.5809 -12.758 0.503573 -10.1037 -85.1688 -16.4044 78.9104 -23.1888 -25.0691 -105.537 25.0228 6.31844 -58.4577 2.15162 -0.25526 -8.54934 -6.44406 -1.94006 -5.45952 6.54568 -1.29535 1.97259 
